<svg xmlns="http://www.w3.org/2000/svg" width="1200" height="630" viewBox="0 0 1200 630">
  <defs>
    <radialGradient id="bg" cx="50%" cy="42%" r="72%">
      <stop offset="0%" stop-color="#080F28"/>
      <stop offset="100%" stop-color="#030305"/>
    </radialGradient>
    <radialGradient id="glow" cx="50%" cy="50%" r="48%">
      <stop offset="0%" stop-color="#3B5BFF" stop-opacity="0.28"/>
      <stop offset="100%" stop-color="#3B5BFF" stop-opacity="0"/>
    </radialGradient>
    <radialGradient id="corner" cx="100%" cy="0%" r="55%">
      <stop offset="0%" stop-color="#4F7CFF" stop-opacity="0.12"/>
      <stop offset="100%" stop-color="#4F7CFF" stop-opacity="0"/>
    </radialGradient>
  </defs>

  <rect width="1200" height="630" fill="url(#bg)"/>
  <ellipse cx="600" cy="295" rx="520" ry="330" fill="url(#glow)"/>
  <ellipse cx="1200" cy="0" rx="440" ry="330" fill="url(#corner)"/>

  <g stroke="#4F7CFF" stroke-opacity="0.045" stroke-width="1">
    <line x1="0" y1="105" x2="1200" y2="105"/><line x1="0" y1="210" x2="1200" y2="210"/>
    <line x1="0" y1="315" x2="1200" y2="315"/><line x1="0" y1="420" x2="1200" y2="420"/>
    <line x1="0" y1="525" x2="1200" y2="525"/>
    <line x1="150" y1="0" x2="150" y2="630"/><line x1="300" y1="0" x2="300" y2="630"/>
    <line x1="450" y1="0" x2="450" y2="630"/><line x1="600" y1="0" x2="600" y2="630"/>
    <line x1="750" y1="0" x2="750" y2="630"/><line x1="900" y1="0" x2="900" y2="630"/>
    <line x1="1050" y1="0" x2="1050" y2="630"/>
  </g>

  <g fill="none" stroke="#4F7CFF" stroke-width="1.5" stroke-opacity="0.35" stroke-linecap="round">
    <path d="M 28 62 L 28 28 L 62 28"/>
    <path d="M 1138 28 L 1172 28 L 1172 62"/>
    <path d="M 28 568 L 28 602 L 62 602"/>
    <path d="M 1138 602 L 1172 602 L 1172 568"/>
  </g>

  <line x1="108" y1="72" x2="1092" y2="72" stroke="#4F7CFF" stroke-opacity="0.08" stroke-width="1"/>

  <circle cx="56" cy="44" r="14" fill="#4F7CFF" fill-opacity="0.18"/>
  <text x="56" y="50" font-family="Inter, system-ui, -apple-system, sans-serif" font-size="13" font-weight="700" fill="#7BA0FF" text-anchor="middle">S</text>
  <text x="80" y="50" font-family="Inter, system-ui, -apple-system, sans-serif" font-size="15" font-weight="600" fill="#EBEBEB">SyncAgency</text>

  <rect x="440" y="191" width="320" height="26" rx="13" fill="#0C1535" stroke="#4F7CFF" stroke-opacity="0.35" stroke-width="1"/>
  <text x="600" y="209" font-family="Inter, system-ui, -apple-system, sans-serif" font-size="11" font-weight="600" fill="#7BA0FF" text-anchor="middle" letter-spacing="2">ARTICLE • ORGANISATION</text>

  <text x="600" y="335" font-family="Inter, system-ui, -apple-system, sans-serif" font-size="64" font-weight="900" fill="#F0F0F0" text-anchor="middle">Ton Google Sheet</text>
  <text x="600" y="420" font-family="Inter, system-ui, -apple-system, sans-serif" font-size="74" font-weight="900" fill="#7BA0FF" text-anchor="middle">est un plafond.</text>

  <text x="600" y="472" font-family="Inter, system-ui, -apple-system, sans-serif" font-size="17" font-weight="400" fill="#5E5E6A" text-anchor="middle">Pourquoi les agences OFM sérieuses passent à mieux que les tableurs.</text>

  <rect x="490" y="557" width="220" height="28" rx="14" fill="#0C1535" stroke="#4F7CFF" stroke-opacity="0.38" stroke-width="1"/>
  <text x="600" y="576" font-family="Inter, system-ui, -apple-system, sans-serif" font-size="12" font-weight="500" fill="#7BA0FF" text-anchor="middle">syncagency.fr</text>
</svg>
